<svg width="33" height="33" viewBox="0 0 33 33" fill="none" xmlns="http://www.w3.org/2000/svg">
<g clip-path="url(#clip0)">
<g clip-path="url(#clip1)">
<path d="M31.6753 18.8387C31.3479 18.7568 31.0206 18.8387 30.7341 19.0433C29.6702 19.9435 28.4427 20.68 27.0923 21.1711C25.8238 21.6621 24.4326 21.9076 22.9595 21.9076C19.6451 21.9076 16.617 20.5573 14.4483 18.3886C12.2796 16.2199 10.9293 13.1918 10.9293 9.87739C10.9293 8.48614 11.1748 7.13581 11.584 5.90824C12.0341 4.59882 12.6888 3.41217 13.5481 2.38919C13.9164 1.93908 13.8345 1.28437 13.3844 0.916102C13.098 0.711506 12.7706 0.629668 12.4433 0.711506C8.96516 1.65265 5.93715 3.73952 3.76843 6.52202C1.68155 9.26361 0.453979 12.6599 0.453979 16.3426C0.453979 20.8028 2.25442 24.8538 5.2006 27.8C8.14678 30.7462 12.1569 32.5466 16.658 32.5466C20.4225 32.5466 23.9006 31.2372 26.6832 29.0685C29.5066 26.8588 31.5525 23.7081 32.4118 20.1072C32.5755 19.5343 32.2482 18.9614 31.6753 18.8387Z" fill="#100E0E"/>
</g>
</g>
<defs>
<clipPath id="clip0">
<rect width="32" height="32" fill="white" transform="translate(0.453979 0.613403)"/>
</clipPath>
<clipPath id="clip1">
<rect width="32" height="32" fill="white" transform="translate(0.453979 0.613403)"/>
</clipPath>
</defs>
</svg>