<svg width="33" height="33" viewBox="0 0 33 33" fill="none" xmlns="http://www.w3.org/2000/svg">
<g clip-path="url(#clip0)">
<path d="M22.1259 10.9414C20.6868 9.50226 18.655 8.57104 16.454 8.57104C14.2529 8.57104 12.2211 9.45993 10.782 10.9414C9.34284 12.3806 8.41162 14.4123 8.41162 16.6134C8.41162 18.8144 9.34284 20.8462 10.782 22.2853C12.2211 23.7245 14.2529 24.6557 16.454 24.6557C18.655 24.6557 20.6868 23.7668 22.1259 22.2853C23.5651 20.8462 24.4963 18.8144 24.4963 16.6134C24.4963 14.4123 23.6074 12.3806 22.1259 10.9414Z" fill="#F5F4F4"/>
<path d="M16.4539 6.07372C17.0465 6.07372 17.5545 5.56578 17.5545 4.97319V1.71393C17.5545 1.12134 17.0465 0.613403 16.4539 0.613403C15.8613 0.613403 15.3534 1.12134 15.3534 1.71393V4.97319C15.3534 5.56578 15.8613 6.07372 16.4539 6.07372Z" fill="#F5F4F4"/>
<path d="M25.4698 9.16371L27.7979 6.83566C28.2211 6.41238 28.2211 5.73513 27.7979 5.31185C27.3746 4.88856 26.6973 4.88856 26.274 5.31185L23.946 7.63989C23.5227 8.06317 23.5227 8.74043 23.946 9.16371C24.327 9.58699 25.0042 9.58699 25.4698 9.16371Z" fill="#F5F4F4"/>
<path d="M31.3534 15.5129H28.0941C27.5015 15.5129 26.9936 16.0209 26.9936 16.6135C26.9936 17.2061 27.5015 17.714 28.0941 17.714H31.3534C31.946 17.714 32.4539 17.2061 32.4539 16.6135C32.4539 16.0209 31.946 15.5129 31.3534 15.5129Z" fill="#F5F4F4"/>
<path d="M25.4275 24.0632C25.0042 23.6399 24.3269 23.6399 23.9036 24.0632C23.4804 24.4865 23.4804 25.1637 23.9036 25.587L26.2317 27.915C26.655 28.3383 27.3322 28.3383 27.7555 27.915C28.1788 27.4918 28.1788 26.8145 27.7555 26.3912L25.4275 24.0632Z" fill="#F5F4F4"/>
<path d="M16.4539 27.1531C15.8613 27.1531 15.3534 27.661 15.3534 28.2536V31.5129C15.3534 32.1055 15.8613 32.6134 16.4539 32.6134C17.0465 32.6134 17.5545 32.1055 17.5545 31.5129V28.2536C17.5545 27.661 17.0465 27.1531 16.4539 27.1531Z" fill="#F5F4F4"/>
<path d="M7.43817 24.0632L5.11012 26.3912C4.68684 26.8145 4.68684 27.4918 5.11012 27.915C5.53341 28.3383 6.21066 28.3383 6.63394 27.915L8.96199 25.587C9.38527 25.1637 9.38527 24.4865 8.96199 24.0632C8.58103 23.6399 7.90378 23.6399 7.43817 24.0632Z" fill="#F5F4F4"/>
<path d="M5.9143 16.6135C5.9143 16.0209 5.40636 15.5129 4.81377 15.5129H1.55451C0.961916 15.5129 0.453979 16.0209 0.453979 16.6135C0.453979 17.2061 0.961916 17.714 1.55451 17.714H4.81377C5.40636 17.714 5.9143 17.2061 5.9143 16.6135Z" fill="#F5F4F4"/>
<path d="M7.43817 9.16371C7.86145 9.58699 8.5387 9.58699 8.96199 9.16371C9.38527 8.74043 9.38527 8.06317 8.96199 7.63989L6.63394 5.31185C6.21066 4.88856 5.53341 4.88856 5.11012 5.31185C4.68684 5.73513 4.68684 6.41238 5.11012 6.83566L7.43817 9.16371Z" fill="#F5F4F4"/>
</g>
<defs>
<clipPath id="clip0">
<rect width="32" height="32" fill="white" transform="translate(0.453979 0.613403)"/>
</clipPath>
</defs>
</svg>
