<svg width="30" height="44" viewBox="0 0 30 44" fill="none" xmlns="http://www.w3.org/2000/svg" xmlns:xlink="http://www.w3.org/1999/xlink">
<rect x="19.9514" y="13.7261" width="7.55576" height="7.55576" fill="url(#pattern0)"/>
<rect x="4.3186" y="4.34644" width="3.80412" height="3.80412" fill="url(#pattern1)"/>
<rect x="2.75537" y="26.4927" width="6.83383" height="6.83383" fill="url(#pattern2)"/>
<path d="M9.99286 8.14025C7.76034 8.02275 6.80565 13.1047 6.3944 12.6787L3.32468 10.2259C2.84001 9.99089 -0.39127 11.915 1.69437 13.9859C2.0175 14.0887 0.387173 15.8366 2.93515 16.7201L4.82283 18.5684L6.58089 21.064L9.68367 26.3386C9.90042 26.8436 10.0176 27.3342 10.1654 27.8446V8.14025C10.1066 8.14316 10.049 8.14321 9.99286 8.14025Z" fill="#B51D1D"/>
<path fill-rule="evenodd" clip-rule="evenodd" d="M19.7454 20.9714V39.1319C19.6805 39.1034 19.6173 39.0759 19.556 39.0491C19.0109 38.8116 18.6149 38.639 18.5117 38.4848C17.9884 37.7033 16.8505 37.0985 15.9188 36.6034C15.4715 36.3656 15.0718 36.1532 14.8104 35.9586C12.5561 34.2803 12.4056 32.7871 12.3132 31.8696C12.2782 31.5228 12.2515 31.2582 12.1226 31.097C10.8165 29.8005 10.4386 28.7886 10.1654 27.8446V8.14025C11.9286 8.05293 14.7951 5.38691 14.5901 3.8221C14.311 1.6924 14.8691 1.35458 15.5595 1.16364C16.2498 0.972704 18.5704 3.91022 19.7454 5.98118V14.4637C18.9241 15.9862 18.1857 18.03 18.449 19.2799C18.5322 19.6751 19.1266 20.3138 19.7454 20.9714Z" fill="#B51D1D"/>
<path d="M27.7795 41.158C27.9134 41.3695 28.7511 36.5431 27.8824 36.0467C27.4276 35.7868 27.7829 34.5878 28.21 33.1463C28.599 31.8337 29.0475 30.32 28.9983 29.1311C28.9764 28.5998 28.4398 27.4556 27.7572 27.5798C27.7321 27.5843 27.7162 27.5235 27.6903 27.4245C27.5746 26.9829 27.2603 25.7821 25.0423 26.2501C24.7165 26.3188 24.9008 23.9441 25.0423 23.3135C25.1389 22.8832 24.7659 22.9989 24.1955 23.176C23.2877 23.4577 21.8798 23.8947 21.0673 22.5341C20.8087 22.1011 20.2953 21.5556 19.7903 21.0191L19.7454 20.9714V39.1319C20.7882 39.5889 22.2655 40.2754 23.3292 41.4664C23.3292 41.4664 23.8949 42.2155 24.5042 42.2155C25.0917 42.2155 25.8002 42.7981 25.8002 42.7981C25.895 42.8664 25.9885 42.6597 26.1203 42.3684C26.3928 41.766 26.8291 40.8016 27.7795 41.158Z" fill="#B51D1D"/>
<path d="M19.7454 14.4637C20.3616 13.3217 21.0244 12.4731 21.3464 12.4731C21.9483 12.3824 22.4887 12.0602 22.9335 11.7951C23.2809 11.5879 23.57 11.4156 23.7845 11.4156C23.8206 11.4223 23.8572 11.4291 23.8942 11.4359C25.2406 11.6862 27.1067 12.0331 26.017 9.91745C25.8702 9.63231 26.2797 8.83771 26.5859 8.24375C26.8065 7.81562 26.9735 7.49173 26.8395 7.53806C26.2985 7.47136 25.6489 7.45015 24.9624 7.42773C22.9278 7.36129 20.5682 7.28425 19.7454 5.98118V14.4637Z" fill="#B51D1D"/>
<path d="M25.8002 42.7981C25.7967 42.7442 25.8019 42.855 25.8002 42.7981ZM25.8002 42.7981C25.8002 42.7981 25.0917 42.2155 24.5042 42.2155C23.8949 42.2155 23.3292 41.4664 23.3292 41.4664C22.2655 40.2754 20.7882 39.5889 19.7454 39.1319M25.8002 42.7981C25.895 42.8664 25.9885 42.6597 26.1203 42.3684C26.3928 41.766 26.8291 40.8016 27.7795 41.158C27.9134 41.3695 28.7511 36.5431 27.8824 36.0467C27.4276 35.7868 27.7829 34.5878 28.21 33.1463C28.599 31.8337 29.0475 30.32 28.9983 29.1311C28.9764 28.5998 28.4398 27.4556 27.7572 27.5798C27.7321 27.5843 27.7162 27.5235 27.6903 27.4245C27.5746 26.9829 27.2603 25.7821 25.0423 26.2501C24.7165 26.3188 24.9008 23.9441 25.0423 23.3135C25.1389 22.8832 24.7659 22.9989 24.1955 23.176C23.2877 23.4577 21.8798 23.8947 21.0673 22.5341C20.8087 22.1011 20.2953 21.5556 19.7903 21.0191M19.7454 5.98118C18.5704 3.91022 16.2498 0.972704 15.5595 1.16364C14.8691 1.35458 14.311 1.6924 14.5901 3.8221C14.7951 5.38691 11.9286 8.05293 10.1654 8.14025M19.7454 5.98118V14.4637M19.7454 5.98118C20.5682 7.28425 22.9278 7.36129 24.9624 7.42773C25.6489 7.45015 26.2985 7.47136 26.8395 7.53806C26.9735 7.49173 26.8065 7.81562 26.5859 8.24375C26.2797 8.83771 25.8702 9.63231 26.017 9.91745C27.1067 12.0331 25.2406 11.6862 23.8942 11.4359C23.8572 11.4291 23.8206 11.4223 23.7845 11.4156C23.57 11.4156 23.2809 11.5879 22.9335 11.7951C22.4887 12.0602 21.9483 12.3824 21.3464 12.4731C21.0244 12.4731 20.3616 13.3217 19.7454 14.4637M19.7454 14.4637C18.9241 15.9862 18.1857 18.03 18.449 19.2799C18.5322 19.6751 19.1266 20.3138 19.7454 20.9714M19.7454 20.9714C19.7454 27.0249 19.7454 39.1319 19.7454 39.1319M19.7454 20.9714L19.7903 21.0191M19.7454 20.9714C19.7604 20.9873 19.7753 21.0032 19.7903 21.0191M19.7454 20.9714V39.1319M19.7454 39.1319C19.6805 39.1034 19.6173 39.0759 19.556 39.0491C19.0109 38.8115 18.6149 38.639 18.5117 38.4848C17.9884 37.7033 16.8505 37.0985 15.9188 36.6034C15.4715 36.3656 15.0718 36.1532 14.8104 35.9586C12.5561 34.2803 12.4056 32.7871 12.3132 31.8696C12.2782 31.5228 12.2515 31.2582 12.1226 31.097C10.8165 29.8005 10.4386 28.7886 10.1654 27.8446M10.1654 8.14025C10.1066 8.14316 10.049 8.14321 9.99286 8.14025C7.76034 8.02275 6.80565 13.1047 6.3944 12.6787L3.32468 10.2259C2.84001 9.99089 -0.39127 11.915 1.69437 13.9859C2.0175 14.0887 0.387173 15.8366 2.93515 16.7201L4.82283 18.5684L6.58089 21.064L9.68367 26.3386C9.90043 26.8436 10.0176 27.3342 10.1654 27.8446M10.1654 8.14025V27.8446" stroke="black" stroke-width="1.04217"/>
<path fill-rule="evenodd" clip-rule="evenodd" d="M19.7454 20.9714V39.1319C19.6805 39.1034 19.6173 39.0759 19.556 39.0491C19.0109 38.8116 18.6149 38.639 18.5117 38.4848C17.9884 37.7033 16.8505 37.0985 15.9188 36.6034C15.4715 36.3656 15.0718 36.1532 14.8104 35.9586C12.5561 34.2803 12.4056 32.7871 12.3132 31.8696C12.2782 31.5228 12.2515 31.2582 12.1226 31.097C10.8165 29.8005 10.4386 28.7886 10.1654 27.8446V8.14025C11.9286 8.05293 14.7951 5.38691 14.5901 3.8221C14.311 1.6924 14.8691 1.35458 15.5595 1.16364C16.2498 0.972704 18.5704 3.91022 19.7454 5.98118V14.4637C18.9241 15.9862 18.1857 18.03 18.449 19.2799C18.5322 19.6751 19.1266 20.3138 19.7454 20.9714Z" fill="white"/>
<path d="M25.8002 42.7981C25.7967 42.7442 25.8019 42.855 25.8002 42.7981ZM25.8002 42.7981C25.8002 42.7981 25.0917 42.2155 24.5042 42.2155C23.8949 42.2155 23.3292 41.4664 23.3292 41.4664C22.2655 40.2754 20.7882 39.5889 19.7454 39.1319M25.8002 42.7981C25.895 42.8664 25.9885 42.6597 26.1203 42.3684C26.3928 41.766 26.8291 40.8016 27.7795 41.158C27.9134 41.3695 28.7511 36.5431 27.8824 36.0467C27.4276 35.7868 27.7829 34.5878 28.21 33.1463C28.599 31.8337 29.0475 30.32 28.9983 29.1311C28.9764 28.5998 28.4398 27.4556 27.7572 27.5798C27.7321 27.5843 27.7162 27.5235 27.6903 27.4245C27.5746 26.9829 27.2603 25.7821 25.0423 26.2501C24.7165 26.3188 24.9008 23.9441 25.0423 23.3135C25.1389 22.8832 24.7659 22.9989 24.1955 23.176C23.2877 23.4577 21.8798 23.8947 21.0673 22.5341C20.8087 22.1011 20.2953 21.5556 19.7903 21.0191M19.7454 5.98118C18.5704 3.91022 16.2498 0.972704 15.5595 1.16364C14.8691 1.35458 14.311 1.6924 14.5901 3.8221C14.7951 5.38691 11.9286 8.05293 10.1654 8.14025M19.7454 5.98118V14.4637M19.7454 5.98118C20.5682 7.28425 22.9278 7.36129 24.9624 7.42773C25.6489 7.45015 26.2985 7.47136 26.8395 7.53806C26.9735 7.49173 26.8065 7.81562 26.5859 8.24375C26.2797 8.83771 25.8702 9.63231 26.017 9.91745C27.1067 12.0331 25.2406 11.6862 23.8942 11.4359C23.8572 11.4291 23.8206 11.4223 23.7845 11.4156C23.57 11.4156 23.2809 11.5879 22.9335 11.7951C22.4887 12.0602 21.9483 12.3824 21.3464 12.4731C21.0244 12.4731 20.3616 13.3217 19.7454 14.4637M19.7454 14.4637C18.9241 15.9862 18.1857 18.03 18.449 19.2799C18.5322 19.6751 19.1266 20.3138 19.7454 20.9714M19.7454 20.9714C19.7454 27.0249 19.7454 39.1319 19.7454 39.1319M19.7454 20.9714L19.7903 21.0191M19.7454 20.9714C19.7604 20.9873 19.7753 21.0032 19.7903 21.0191M19.7454 20.9714V39.1319M19.7454 39.1319C19.6805 39.1034 19.6173 39.0759 19.556 39.0491C19.0109 38.8115 18.6149 38.639 18.5117 38.4848C17.9884 37.7033 16.8505 37.0985 15.9188 36.6034C15.4715 36.3656 15.0718 36.1532 14.8104 35.9586C12.5561 34.2803 12.4056 32.7871 12.3132 31.8696C12.2782 31.5228 12.2515 31.2582 12.1226 31.097C10.8165 29.8005 10.4386 28.7886 10.1654 27.8446M10.1654 8.14025C10.1066 8.14316 10.049 8.14321 9.99286 8.14025C7.76034 8.02275 6.80565 13.1047 6.3944 12.6787L3.32468 10.2259C2.84001 9.99089 -0.39127 11.915 1.69437 13.9859C2.0175 14.0887 0.387173 15.8366 2.93515 16.7201L4.82283 18.5684L6.58089 21.064L9.68367 26.3386C9.90043 26.8436 10.0176 27.3342 10.1654 27.8446M10.1654 8.14025V27.8446" stroke="black" stroke-width="1.04217"/>
<defs>
<pattern id="pattern0" patternContentUnits="objectBoundingBox" width="1" height="1">
<use xlink:href="#image0" transform="scale(0.00195312)"/>
</pattern>
<pattern id="pattern1" patternContentUnits="objectBoundingBox" width="1" height="1">
<use xlink:href="#image0" transform="scale(0.00195312)"/>
</pattern>
<pattern id="pattern2" patternContentUnits="objectBoundingBox" width="1" height="1">
<use xlink:href="#image0" transform="scale(0.00195312)"/>
</pattern>
</defs>
</svg>
